<?xml version="1.0" encoding="UTF-8"?>
<svg xmlns="http://www.w3.org/2000/svg" xmlns:xlink="http://www.w3.org/1999/xlink" width="85.438pt" height="113.784pt" viewBox="0 0 85.438 113.784" version="1.1">
<defs>
<clipPath id="clip1">
  <path d="M 0 85 L 85.4375 85 L 85.4375 113.785156 L 0 113.785156 Z M 0 85 "/>
</clipPath>
</defs>
<g id="surface1">
<path style="fill:none;stroke-width:0.3985;stroke-linecap:butt;stroke-linejoin:miter;stroke:rgb(0%,0%,0%);stroke-opacity:1;stroke-miterlimit:10;" d="M 0.00021875 -0.00021875 L 0.00021875 -28.347875 Z M 0.00021875 -0.00021875 " transform="matrix(1,0,0,-1,0.199,0.199)"/>
<path style="fill-rule:nonzero;fill:rgb(100%,100%,100%);fill-opacity:1;stroke-width:0.3985;stroke-linecap:butt;stroke-linejoin:miter;stroke:rgb(0%,0%,0%);stroke-opacity:1;stroke-miterlimit:10;" d="M 0.00021875 -28.347875 L 0.00021875 -56.695531 L 28.347875 -56.695531 L 28.347875 -28.347875 Z M 0.00021875 -28.347875 " transform="matrix(1,0,0,-1,0.199,0.199)"/>
<path style="fill-rule:nonzero;fill:rgb(100%,100%,100%);fill-opacity:1;stroke-width:0.3985;stroke-linecap:butt;stroke-linejoin:miter;stroke:rgb(0%,0%,0%);stroke-opacity:1;stroke-miterlimit:10;" d="M 0.00021875 -56.695531 L 0.00021875 -85.039281 L 56.695531 -85.039281 L 56.695531 -56.695531 Z M 0.00021875 -56.695531 " transform="matrix(1,0,0,-1,0.199,0.199)"/>
<g clip-path="url(#clip1)" clip-rule="nonzero">
<path style="fill-rule:nonzero;fill:rgb(100%,100%,100%);fill-opacity:1;stroke-width:0.3985;stroke-linecap:butt;stroke-linejoin:miter;stroke:rgb(0%,0%,0%);stroke-opacity:1;stroke-miterlimit:10;" d="M 0.00021875 -85.039281 L 0.00021875 -113.386937 L 85.039281 -113.386937 L 85.039281 -85.039281 Z M 0.00021875 -85.039281 " transform="matrix(1,0,0,-1,0.199,0.199)"/>
</g>
</g>
</svg>
