<?xml version="1.0" encoding="UTF-8"?>
<svg xmlns="http://www.w3.org/2000/svg" xmlns:xlink="http://www.w3.org/1999/xlink" width="103.297pt" height="129.153pt" viewBox="0 0 103.297 129.153" version="1.1">
<defs>
<clipPath id="clip1">
  <path d="M 0 0 L 26 0 L 26 129.152344 L 0 129.152344 Z M 0 0 "/>
</clipPath>
<clipPath id="clip2">
  <path d="M 0 103 L 103.296875 103 L 103.296875 129.152344 L 0 129.152344 Z M 0 103 "/>
</clipPath>
</defs>
<g id="surface1">
<path style="fill:none;stroke-width:0.3985;stroke-linecap:butt;stroke-linejoin:miter;stroke:rgb(0%,0%,0%);stroke-opacity:1;stroke-miterlimit:10;" d="M -0.0000625 0.000125 L -0.0000625 -28.347531 Z M -0.0000625 0.000125 " transform="matrix(1,0,0,-1,17.461,0.797)"/>
<path style="fill-rule:nonzero;fill:rgb(100%,100%,100%);fill-opacity:1;stroke-width:0.3985;stroke-linecap:butt;stroke-linejoin:miter;stroke:rgb(0%,0%,0%);stroke-opacity:1;stroke-miterlimit:10;" d="M -0.0000625 -28.347531 L -0.0000625 -56.695188 L 28.347594 -56.695188 L 28.347594 -28.347531 Z M -0.0000625 -28.347531 " transform="matrix(1,0,0,-1,17.461,0.797)"/>
<path style="fill-rule:nonzero;fill:rgb(100%,100%,100%);fill-opacity:1;stroke-width:0.3985;stroke-linecap:butt;stroke-linejoin:miter;stroke:rgb(0%,0%,0%);stroke-opacity:1;stroke-miterlimit:10;" d="M -0.0000625 -56.695188 L -0.0000625 -85.038938 L 56.69525 -85.038938 L 56.69525 -56.695188 Z M -0.0000625 -56.695188 " transform="matrix(1,0,0,-1,17.461,0.797)"/>
<path style="fill-rule:nonzero;fill:rgb(100%,100%,100%);fill-opacity:1;stroke-width:0.3985;stroke-linecap:butt;stroke-linejoin:miter;stroke:rgb(0%,0%,0%);stroke-opacity:1;stroke-miterlimit:10;" d="M -0.0000625 -85.038938 L -0.0000625 -113.386594 L 85.039 -113.386594 L 85.039 -85.038938 Z M -0.0000625 -85.038938 " transform="matrix(1,0,0,-1,17.461,0.797)"/>
<g clip-path="url(#clip1)" clip-rule="nonzero">
<path style="fill:none;stroke-width:1.59404;stroke-linecap:butt;stroke-linejoin:miter;stroke:rgb(0%,0%,0%);stroke-opacity:1;stroke-miterlimit:10;" d="M -14.171937 -113.386594 C -14.921937 -113.0155 -15.418031 -112.1405 -15.418031 -110.898313 L -15.418031 -59.183469 C -15.418031 -57.937375 -15.918031 -57.066281 -16.664125 -56.695188 C -15.918031 -56.320188 -15.418031 -55.449094 -15.418031 -54.203 L -15.418031 -2.492063 C -15.418031 -1.245969 -14.921937 -0.374875 -14.171937 0.000125 " transform="matrix(1,0,0,-1,17.461,0.797)"/>
</g>
<g clip-path="url(#clip2)" clip-rule="nonzero">
<path style="fill:none;stroke-width:1.59404;stroke-linecap:butt;stroke-linejoin:miter;stroke:rgb(0%,0%,0%);stroke-opacity:1;stroke-miterlimit:10;" d="M -0.0000625 -127.562375 C 0.374938 -126.812375 1.246031 -126.316281 2.492125 -126.316281 L 40.031188 -126.316281 C 41.273375 -126.316281 42.148375 -125.816281 42.519469 -125.070188 C 42.894469 -125.816281 43.765563 -126.316281 45.011656 -126.316281 L 82.550719 -126.316281 C 83.796813 -126.316281 84.667906 -126.812375 85.039 -127.562375 " transform="matrix(1,0,0,-1,17.461,0.797)"/>
</g>
</g>
</svg>
